<?xml version="1.0" encoding="UTF-8" standalone="no"?>
<svg xmlns:cc="http://creativecommons.org/ns#" xmlns:dc="http://purl.org/dc/elements/1.1/"
    xmlns:inkscape="http://www.inkscape.org/namespaces/inkscape" xmlns:rdf="http://www.w3.org/1999/02/22-rdf-syntax-ns#"
    xmlns:sodipodi="http://sodipodi.sourceforge.net/DTD/sodipodi-0.dtd" style="fill:#231f20" height="220" id="svg18"
    version="1" viewBox="-175 -166 160 220" width="160" xmlns="http://www.w3.org/2000/svg"
    inkscape:export-filename="C:\Users\aaspellc\src\elibrary\app\src\main\res\drawable\logo_pdf.png"
    inkscape:export-xdpi="96" inkscape:export-ydpi="96" inkscape:version="0.92.4 (5da689c313, 2019-01-14)"
    sodipodi:docname="logo_pdf.svg">
    <defs id="defs22" />
    <g id="g865" transform="matrix(0.26765441,0,0,0.26765441,-128.16048,12.610696)">
        <g id="g853" transform="translate(0,-38.956312)">
            <g id="g842">
                <g style="fill:#f91d0a" id="g8" transform="translate(-0.02359917,-361.14685)">
                    <path
                        d="M 83.5,87.5 A 30.9,30.9 0 0 0 68.4,68 V 67.8 L 72.6,57.9 79,42.1 C 57.6,-39.6 44.7,-105.2 56.2,-147.7 c 3.1,-11 16,-17.8 29.6,-17.8 l 8.4,0.2 h 1.5 c 18.7,-0.3 27.6,23.5 28.6,32.8 1.6,15.5 -5.5,41.6 -5.5,41.6 0,-10.6 0.4,-27.6 -6.3,-42.3 -7.7,-17 -15.1,-27.2 -21.8,-28.9 -3.3,2.3 -6.6,7 -7.7,15.9 -2.3,12.5 -3,28.3 -3,36.4 0,28.8 5.7,66.7 16.8,105.8 2,-6 4,-11.8 5.4,-17.3 L 119,-86.9 c 0,0 -3.7,75.9 -8.8,98.9 -1,4.9 -2.3,9.7 -3.5,14.6 A 359,359 0 0 0 123.5,66 l -0.1,0.2 c -2.6,-0.8 -5.5,-1.3 -8.7,-1.3 -9.5,0 -18.4,5 -21.5,8 a 80.7,80.7 0 0 0 -9.7,14.7 z m 38.3,33.8 h 21.5 v -15 l -0.1,-5.7 v -0.2 a 303.5,303.5 0 0 0 46.7,56 260,260 0 0 0 48,33.1 c 36.4,-5.2 69.8,-7.6 97.7,-7.3 37,0.5 64.1,6 75.1,16.8 a 28.6,28.6 0 0 1 8.3,18.7 c 0.1,2.8 -1.2,9.3 -1.6,11 0.4,-2 0.4,-11.8 -29.3,-21.3 -23.4,-7.4 -67.2,-7.2 -119.7,-1.6 60.7,29.7 120,44.5 138.7,35.6 4.6,-2.2 10.2,-9.8 10.2,-9.8 0,0 -3.4,15 -5.7,18.8 -3,4 -9,8.5 -14.6,10 C 367.3,268.2 290.2,250 223,211.5 147.9,222.6 65.4,243 -0.7,264.7 c -65,114 -113.9,166.2 -153.6,146.3 l -14.6,-7.3 c -6,-3.4 -6.9,-11.7 -5.5,-18.4 4.6,-22.7 33,-56.8 90.2,-91 6.1,-3.7 33.5,-18.1 33.5,-18.1 0,0 -20.3,19.6 -25,23.4 -45.6,37.4 -79.3,84.4 -78.4,102.6 l 0.2,1.6 c 38.7,-5.6 96.8,-84.3 171.4,-230.4 l 5.9,-11.5 H 53.3 L 41,185.5 A 2781,2781 0 0 1 5.1,250.8 c 62.3,-26.1 129.2,-42.8 193,-54.7 a 310.5,310.5 0 0 1 -76.3,-75 v 0.1 z"
                        id="path6" inkscape:connector-curvature="0" />
                </g>
                <path
                    d="m -149.7236,-250.84685 4.3,-27.2 c 1.4,-7.1 4.3,-17.2 4.3,-25.7 h 1.4 c 1.4,8.5 2.9,18.6 4.3,25.7 l 4.3,27.2 z m 21.4,11.5 5.8,31.5 h 15.7 l -24.2,-111.7 h -17.2 l -25.8,111.7 h 15.8 l 5.7,-31.5 h 24.3 m 116.900001,20 c -10,0 -12.9,-15.7 -12.9,-28.6 0,-12.9 2.9,-30 13,-30 10.0999998,0 11.29999983,17 11.29999983,29.9 0,11.4 -1.50000003,28.6 -11.49999983,28.6 z m 0,13 c 11.49999983,0 27.2,-10.1 27.2,-41.6 0.1,-27.2 -11.4000002,-41.5 -27.2,-41.5 -14.3,0 -28.6,11.4 -28.6,41.5 0,27.2 12.9,41.5 28.6,41.5"
                    id="path4" inkscape:connector-curvature="0" />
                <path style="fill:#f91d0a"
                    d="m 401.3764,-83.046851 h 1.7 c 1.9,0 3.5,-0.5 3.5,-2.2 0,-1.3 -0.8,-2.2 -3.3,-2.2 a 9,9 0 0 0 -2,0.2 v 4.3 z m 0,7.7 h -2.6 v -13.6 a 28,28 0 0 1 4.8,-0.4 c 2.3,0 3.4,0.4 4.3,1 0.8,0.6 1.4,1.7 1.4,2.9 0,1.7 -1.2,2.8 -2.7,3.3 v 0.1 c 1.2,0.5 1.9,1.6 2.3,3.3 0.4,2.1 0.6,3 1,3.4 h -2.7 c -0.4,-0.5 -0.7,-1.7 -1,-3.6 -0.3,-1.5 -1.2,-2 -3.2,-2 h -1.6 z m 2.6,6 a 13.1,13.1 0 1 1 0,-26.2 13.1,13.1 0 0 1 0,26.2 z m 10.5,-13 a 10.5,10.5 0 1 0 -21,0 10.5,10.5 0 0 0 21,0 z"
                    id="path2" inkscape:connector-curvature="0" />
                <path
                    d="m 203.8764,-306.64685 c 1.4,0 4.3,-1.4 7.2,-1.4 12.8,0 17.1,10 17.1,21.4 0,13 -7.1,21.5 -18.6,21.5 h -5.6 v -41.5 z m -15.7,98.8 h 15.7 v -44.4 h 5.7 c 10,0 20,-4.3 27.2,-11.5 4.3,-5.7 7.2,-14.3 7.2,-24.3 0,-10 -2.9,-18.6 -8.6,-24.3 -5.7,-5.8 -15.7,-8.6 -27.2,-8.6 -7.2,0 -14.3,1.4 -18.6,2.8 l -1.4,110.3 m 78.7,-98.8 c 1.4,-1.4 4.3,-1.4 5.7,-1.4 15.8,0 24.4,15.7 24.4,41.5 0,35.8 -13,45.8 -25.8,45.8 h -4.3 v -86 z m -15.7,98.8 h 15.7 c 14.3,0 24.3,-2.9 31.5,-11.5 8.6,-7.1 14.3,-22.9 14.3,-47.2 0,-23 -5.7,-37.2 -14.3,-44.4 -7.2,-7.2 -15.8,-10 -28.6,-10 -7.2,0 -13,1.4 -18.6,2.8 v 110.3 m 70.1,-111.7 h 44.4 v 12.9 h -28.7 v 35.8 h 27.2 v 14.3 h -27.2 v 48.7 h -15.8 v -111.7"
                    id="path10" inkscape:connector-curvature="0" />
                <path
                    d="m 151.1764,-277.14685 h 1.7 c 1.9,0 3.5,-0.6 3.5,-2.2 0,-1.3 -0.8,-2.2 -3.3,-2.2 a 9,9 0 0 0 -2,0.1 v 4.3 z m 0,7.7 h -2.6 v -13.7 a 28,28 0 0 1 4.8,-0.4 c 2.3,0 3.4,0.4 4.3,1 0.8,0.6 1.4,1.7 1.4,3 0,1.7 -1.2,2.7 -2.7,3.2 v 0.2 c 1.2,0.5 1.9,1.5 2.3,3.2 0.4,2.2 0.6,3 1,3.5 h -2.7 c -0.5,-0.5 -0.8,-1.7 -1.1,-3.6 -0.3,-1.5 -1.2,-2.1 -3.2,-2.1 h -1.6 v 5.7 z m 2.6,6 a 13.1,13.1 0 1 1 0,-26.2 13.05,13.05 0 0 1 0,26.1 z m 10.5,-13.1 a 10.5,10.5 0 1 0 -21,0 10.5,10.5 0 0 0 21,0 z"
                    id="path12" inkscape:connector-curvature="0" />
                <path
                    d="m 100.7764,-256.54685 c 0,-10 4.3,-21.5 11.5,-21.5 7.1,0 11.4,7.2 11.4,21.5 z m 37.2,11.5 v -8.6 c 0,-20 -7.1,-35.8 -24.3,-35.8 -17.199999,0 -28.599999,15.7 -28.599999,41.5 0,25.8 10,41.5 29.999999,41.5 7.8,0 15.8,-1.4 20,-4.3 l -2.8,-11.4 a 34.2,34.2 0 0 1 -12.9,2.8 c -10,0 -18.6,-5.7 -18.6,-25.7 h 37.2"
                    id="path14" inkscape:connector-curvature="0" />
                <path style="fill:#1a171b"
                    d="m -62.423599,-260.94685 c 0,-1.7 -0.4,-4.2 -1,-5.8 -1.3,-5.1 -5.2,-9.9 -9.9,-9.9 -9.4,0 -13.4,11.4 -13.4,27.9 0,18.1 3.8,29.5 13.3,29.5 3.4,0 7.6,-2 10,-9.7 a 18,18 0 0 0 1,-6 z m 15.7,30 c 0,7.2 0.4,16.4 0.6,23 h -13.1 l -1,-9.6 h -0.5 c -3.9,7.9 -11,11 -17.6,11 -13.6,0 -24.200001,-15.2 -24.200001,-43.7 0,-22.5 10.300001,-39.5 24.400001,-39.5 7,0 11.6,3.3 15.3,9.6 h 0.3 v -42.1 h 15.8 z m 86.5,-4 c 0,2.3 0.5,4.5 1,6 2.5,7.8 6.7,9.7 10,9.7 9.5,0 13.4,-11.4 13.4,-29.5 0,-16.5 -4.1,-27.9 -13.5,-27.9 -4.7,0 -8.6,4.8 -10,9.9 -0.4,1.6 -0.9,4.1 -0.9,5.8 z m -15.7,-87.2 h 15.9 v 42 h 0.3 c 3.7,-6.2 8.2,-9.5 15.3,-9.5 14.1,0 24.4,17 24.4,39.5 0,28.5 -10.5,43.7 -24.2,43.7 -6.5,0 -13.7,-3.1 -17.6,-11 h -0.4 l -1,9.7 h -13.4 c 0.2,-6.7 0.6,-15.9 0.6,-23.1 v -91.4 z"
                    id="path16" inkscape:connector-curvature="0" />
            </g>
        </g>
    </g>
    <metadata id="metadata24">
        <rdf:RDF>
            <cc:Work rdf:about="">
                <dc:format>image/svg+xml</dc:format>
                <dc:title></dc:title>
                <dc:type rdf:resource="http://purl.org/dc/dcmitype/StillImage" />
            </cc:Work>
        </rdf:RDF>
    </metadata>
    <sodipodi:namedview bordercolor="#666666" borderopacity="1" fit-margin-bottom="0" fit-margin-left="0"
        fit-margin-right="0" fit-margin-top="0" gridtolerance="10" guidetolerance="10" id="namedview20"
        objecttolerance="10" pagecolor="#ffffff" showgrid="false" inkscape:current-layer="g865" inkscape:cx="69.642756"
        inkscape:cy="53.295084" inkscape:pageopacity="0" inkscape:pageshadow="2" inkscape:window-height="711"
        inkscape:window-maximized="0" inkscape:window-width="837" inkscape:window-x="11" inkscape:window-y="294"
        inkscape:zoom="1.1508772" />
</svg>
